<svg aria-hidden="true" style="position: absolute; width: 0; height: 0; overflow: hidden;" version="1.1" xmlns="http://www.w3.org/2000/svg" xmlns:xlink="http://www.w3.org/1999/xlink">
<defs>
<symbol id="icon-big-arrow" viewBox="0 0 32 32">
<path fill="none" stroke="#6c6ba2" style="stroke: var(--color1, #6c6ba2)" stroke-linejoin="miter" stroke-linecap="butt" stroke-miterlimit="4" stroke-width="0.5714" d="M16 0.286c8.679 0 15.714 7.036 15.714 15.714s-7.036 15.714-15.714 15.714c-8.679 0-15.714-7.036-15.714-15.714s7.036-15.714 15.714-15.714z"></path>
<path fill="none" stroke="#6c6ba2" style="stroke: var(--color1, #6c6ba2)" stroke-linejoin="miter" stroke-linecap="round" stroke-miterlimit="4" stroke-width="0.5714" d="M12.286 19.714l7.429-7.429M19.714 12.286v2.857M19.714 12.286h-2.857"></path>
</symbol>
<symbol id="icon-black-phone" viewBox="0 0 32 32">
<path fill="#110178" style="fill: var(--color2, #110178)" d="M19.241 27.067l0.013 0.009c1.133 0.722 2.479 1.035 3.814 0.888s2.581-0.745 3.53-1.695l0.825-0.825c0.183-0.183 0.328-0.4 0.427-0.638s0.15-0.495 0.15-0.753c0-0.259-0.051-0.515-0.15-0.753s-0.244-0.456-0.427-0.638l-3.479-3.477c-0.183-0.183-0.4-0.328-0.638-0.427s-0.495-0.15-0.753-0.15c-0.258 0-0.514 0.051-0.753 0.15s-0.456 0.244-0.638 0.427c-0.369 0.369-0.869 0.576-1.391 0.576s-1.022-0.207-1.391-0.576l-5.564-5.565c-0.369-0.369-0.576-0.869-0.576-1.391s0.207-1.022 0.576-1.391c0.183-0.183 0.328-0.4 0.427-0.638s0.15-0.495 0.15-0.753-0.051-0.514-0.15-0.753c-0.099-0.239-0.244-0.456-0.427-0.638l-3.478-3.477c-0.369-0.369-0.869-0.576-1.391-0.576s-1.022 0.207-1.391 0.576l-0.826 0.825c-0.95 0.95-1.548 2.196-1.694 3.531s0.167 2.681 0.889 3.814l0.008 0.013c3.812 5.64 8.669 10.497 14.309 14.308z"></path>
</symbol>
<symbol id="icon-black-tv" viewBox="0 0 32 32">
<path fill="#110178" style="fill: var(--color2, #110178)" d="M11.795 2.667h8.41c0 0 2.462 0 2.462 2.37v4.593c0 0 0 2.37-2.462 2.37h-2.872v1.333h2.167c0.736 0 1.333 0.597 1.333 1.333s-0.597 1.333-1.333 1.333h-7c-0.736 0-1.333-0.597-1.333-1.333s0.597-1.333 1.333-1.333h2.167v-1.333h-2.872c0 0-2.462 0-2.462-2.37v-4.593c0 0 0-2.37 2.462-2.37z"></path>
<path fill="#110178" style="fill: var(--color2, #110178)" d="M3.795 17.333h8.41c0 0 2.462 0 2.462 2.37v4.593c0 0 0 2.37-2.462 2.37h-2.872v1.333h2.167c0.736 0 1.333 0.597 1.333 1.333s-0.597 1.333-1.333 1.333h-7c-0.736 0-1.333-0.597-1.333-1.333s0.597-1.333 1.333-1.333h2.167v-1.333h-2.872c0 0-2.462 0-2.462-2.37v-4.593c0 0 0-2.37 2.462-2.37z"></path>
<path fill="#110178" style="fill: var(--color2, #110178)" d="M28.205 17.333h-8.41c-2.462 0-2.462 2.37-2.462 2.37v4.593c0 2.37 2.462 2.37 2.462 2.37h2.872v1.333h-2.167c-0.736 0-1.333 0.597-1.333 1.333s0.597 1.333 1.333 1.333h7c0.736 0 1.333-0.597 1.333-1.333s-0.597-1.333-1.333-1.333h-2.167v-1.333h2.872c2.462 0 2.462-2.37 2.462-2.37v-4.593c0-2.37-2.462-2.37-2.462-2.37z"></path>
</symbol>
<symbol id="icon-blue-dashboard" viewBox="0 0 32 32">
<path fill="#6b09e8" style="fill: var(--color3, #6b09e8)" d="M19.976 14.805h6.591c1.84 0 2.767-0.927 2.767-2.839v-6.475c0-1.912-0.927-2.825-2.767-2.825h-6.591c-1.854 0-2.781 0.913-2.781 2.825v6.475c0 1.912 0.927 2.839 2.781 2.839z"></path>
<path fill="#6b09e8" style="fill: var(--color3, #6b09e8)" d="M12.038 29.333h-6.605c-1.84 0-2.767-0.913-2.767-2.825v-6.489c0-1.898 0.927-2.825 2.767-2.825h6.605c1.84 0 2.767 0.927 2.767 2.825v6.489c0 1.912-0.927 2.825-2.767 2.825z"></path>
<path fill="#6b09e8" style="fill: var(--color3, #6b09e8)" d="M26.567 29.333h-6.591c-1.854 0-2.781-0.913-2.781-2.825v-6.489c0-1.898 0.927-2.825 2.781-2.825h6.591c1.84 0 2.767 0.927 2.767 2.825v6.489c0 1.912-0.927 2.825-2.767 2.825z"></path>
<path fill="#6b09e8" style="fill: var(--color3, #6b09e8)" d="M12.038 14.805h-6.605c-1.84 0-2.767-0.927-2.767-2.839v-6.475c0-1.912 0.927-2.825 2.767-2.825h6.605c1.84 0 2.767 0.913 2.767 2.825v6.475c0 1.912-0.927 2.839-2.767 2.839z"></path>
</symbol>
<symbol id="icon-blue-net" viewBox="0 0 32 32">
<path fill="#35aeff" style="fill: var(--color4, #35aeff)" d="M21.813 18.667c0.107-0.88 0.187-1.76 0.187-2.667s-0.080-1.787-0.187-2.667h4.507c0.213 0.853 0.347 1.747 0.347 2.667s-0.133 1.813-0.347 2.667zM19.453 26.080c0.8-1.48 1.413-3.080 1.84-4.747h3.933c-1.292 2.224-3.341 3.909-5.773 4.747zM19.12 18.667h-6.24c-0.133-0.88-0.213-1.76-0.213-2.667s0.080-1.8 0.213-2.667h6.24c0.12 0.867 0.213 1.76 0.213 2.667s-0.093 1.787-0.213 2.667zM16 26.613c-1.107-1.6-2-3.373-2.547-5.28h5.093c-0.547 1.907-1.44 3.68-2.547 5.28zM10.667 10.667h-3.893c1.278-2.231 3.326-3.918 5.76-4.747-0.8 1.48-1.4 3.080-1.867 4.747zM6.773 21.333h3.893c0.467 1.667 1.067 3.267 1.867 4.747-2.429-0.837-4.474-2.522-5.76-4.747zM5.68 18.667c-0.213-0.853-0.347-1.747-0.347-2.667s0.133-1.813 0.347-2.667h4.507c-0.107 0.88-0.187 1.76-0.187 2.667s0.080 1.787 0.187 2.667zM16 5.373c1.107 1.6 2 3.387 2.547 5.293h-5.093c0.547-1.907 1.44-3.693 2.547-5.293zM25.227 10.667h-3.933c-0.418-1.651-1.036-3.245-1.84-4.747 2.453 0.84 4.493 2.533 5.773 4.747zM16 2.667c-7.373 0-13.333 6-13.333 13.333 0 3.536 1.405 6.928 3.905 9.428 1.238 1.238 2.708 2.22 4.326 2.89s3.351 1.015 5.102 1.015c3.536 0 6.928-1.405 9.428-3.905s3.905-5.892 3.905-9.428c0-1.751-0.345-3.485-1.015-5.102s-1.652-3.088-2.89-4.326-2.708-2.22-4.326-2.89c-1.618-0.67-3.351-1.015-5.102-1.015z"></path>
</symbol>
<symbol id="icon-blue-phone" viewBox="0 0 32 32">
<path fill="#110178" style="fill: var(--color2, #110178)" d="M19.241 27.067l0.013 0.009c1.133 0.722 2.479 1.035 3.814 0.888s2.581-0.745 3.53-1.695l0.825-0.825c0.183-0.183 0.328-0.4 0.427-0.638s0.15-0.495 0.15-0.753c0-0.259-0.051-0.515-0.15-0.753s-0.244-0.456-0.427-0.638l-3.479-3.477c-0.183-0.183-0.4-0.328-0.638-0.427s-0.495-0.15-0.753-0.15c-0.258 0-0.514 0.051-0.753 0.15s-0.456 0.244-0.638 0.427c-0.369 0.369-0.869 0.576-1.391 0.576s-1.022-0.207-1.391-0.576l-5.564-5.565c-0.369-0.369-0.576-0.869-0.576-1.391s0.207-1.022 0.576-1.391c0.183-0.183 0.328-0.4 0.427-0.638s0.15-0.495 0.15-0.753-0.051-0.514-0.15-0.753c-0.099-0.239-0.244-0.456-0.427-0.638l-3.478-3.477c-0.369-0.369-0.869-0.576-1.391-0.576s-1.022 0.207-1.391 0.576l-0.826 0.825c-0.95 0.95-1.548 2.196-1.694 3.531s0.167 2.681 0.889 3.814l0.008 0.013c3.812 5.64 8.669 10.497 14.309 14.308z"></path>
</symbol>
<symbol id="icon-blue-phone1" viewBox="0 0 32 32">
<path fill="#35aeff" style="fill: var(--color4, #35aeff)" d="M18.387 3.52l-0.76-0.107c-2.284-0.33-4.615-0.004-6.721 0.941s-3.9 2.468-5.173 4.393c-1.354 1.84-2.162 4.025-2.329 6.304s0.312 4.558 1.383 6.576c0.11 0.202 0.178 0.424 0.201 0.653s0 0.46-0.067 0.68c-0.547 1.88-1.053 3.773-1.587 5.76l0.667-0.2c1.8-0.48 3.6-0.96 5.4-1.4 0.38-0.079 0.775-0.042 1.133 0.107 1.615 0.788 3.38 1.222 5.176 1.272s3.582-0.285 5.239-0.982 3.144-1.741 4.364-3.060c1.22-1.32 2.143-2.885 2.708-4.591s0.759-3.513 0.568-5.3c-0.191-1.787-0.761-3.512-1.674-5.060s-2.145-2.883-3.616-3.915c-1.471-1.032-3.145-1.738-4.912-2.070zM21.747 21.013c-0.485 0.434-1.075 0.731-1.713 0.863s-1.298 0.091-1.914-0.116c-2.794-0.787-5.218-2.54-6.84-4.947-0.62-0.851-1.118-1.785-1.48-2.773-0.196-0.574-0.232-1.19-0.102-1.782s0.418-1.138 0.836-1.578c0.203-0.259 0.48-0.451 0.794-0.551s0.651-0.103 0.966-0.009c0.267 0.067 0.453 0.453 0.693 0.747 0.195 0.551 0.423 1.089 0.68 1.613 0.195 0.267 0.277 0.601 0.227 0.928s-0.227 0.621-0.493 0.818c-0.6 0.533-0.507 0.973-0.080 1.573 0.943 1.359 2.245 2.43 3.76 3.093 0.427 0.187 0.747 0.227 1.027-0.213 0.12-0.173 0.28-0.32 0.413-0.48 0.773-0.973 0.533-0.96 1.76-0.427 0.391 0.164 0.769 0.356 1.133 0.573 0.36 0.213 0.907 0.44 0.987 0.76 0.077 0.347 0.057 0.709-0.059 1.045s-0.321 0.634-0.595 0.861z"></path>
</symbol>
<symbol id="icon-blue-profile" viewBox="0 0 32 32">
<path fill="#6b09e8" style="fill: var(--color3, #6b09e8)" d="M16 30.667c8.032 0 14.682-6.661 14.682-14.675 0-8.028-6.664-14.675-14.696-14.675-8.017 0-14.667 6.647-14.667 14.675 0 8.013 6.664 14.675 14.682 14.675zM16 28.222c-6.794 0-12.22-5.438-12.22-12.229s5.412-12.229 12.206-12.229c6.794 0 12.249 5.438 12.249 12.229s-5.441 12.229-12.235 12.229zM25.846 25.474l-0.043-0.158c-0.705-2.115-4.505-4.431-9.802-4.431-5.283 0-9.083 2.316-9.802 4.417l-0.043 0.173c2.591 2.561 7.039 4.057 9.845 4.057 2.821 0 7.226-1.482 9.846-4.057zM16 18.439c2.778 0.029 4.937-2.331 4.937-5.424 0-2.906-2.174-5.309-4.937-5.309s-4.951 2.403-4.937 5.309c0.014 3.093 2.174 5.395 4.937 5.424z"></path>
</symbol>
<symbol id="icon-blue-ring" viewBox="0 0 32 32">
<path fill="#35aeff" style="fill: var(--color4, #35aeff)" d="M22.235 3.504l0.452 0.101c1.18 0.264 2.264 0.849 3.132 1.692s1.484 1.909 1.782 3.081c1.063 4.19 1.063 8.579 0 12.769-0.297 1.172-0.914 2.239-1.781 3.081s-1.951 1.428-3.131 1.692l-0.453 0.1c-2.673 0.598-5.416 0.816-8.149 0.649l-3.641 3.257c-0.089 0.079-0.197 0.133-0.314 0.157s-0.238 0.015-0.35-0.025c-0.112-0.040-0.212-0.108-0.289-0.2s-0.128-0.201-0.148-0.319l-0.62-3.701c-1.111-0.308-2.121-0.904-2.928-1.729s-1.381-1.847-1.664-2.965c-1.063-4.19-1.063-8.579 0-12.769 0.297-1.172 0.914-2.238 1.781-3.081s1.951-1.428 3.131-1.692l0.452-0.1c4.195-0.938 8.545-0.938 12.74 0zM10.62 8.269c-0.248-0.036-0.501 0.014-0.716 0.141h-0.019c-0.5 0.293-0.951 0.663-1.335 1.097-0.32 0.369-0.493 0.743-0.539 1.103-0.027 0.213-0.008 0.429 0.055 0.633l0.024 0.013c0.36 1.057 0.829 2.075 1.403 3.032 0.739 1.345 1.649 2.588 2.707 3.7l0.032 0.045 0.051 0.037 0.031 0.036 0.037 0.032c1.116 1.061 2.362 1.975 3.709 2.72 1.54 0.839 2.475 1.235 3.036 1.4v0.008c0.164 0.051 0.313 0.073 0.464 0.073 0.478-0.035 0.931-0.23 1.285-0.552 0.433-0.384 0.8-0.836 1.085-1.339v-0.009c0.268-0.507 0.177-0.984-0.209-1.308-0.777-0.679-1.617-1.281-2.508-1.8-0.597-0.324-1.204-0.128-1.449 0.2l-0.524 0.661c-0.269 0.328-0.757 0.283-0.757 0.283l-0.013 0.008c-3.641-0.929-4.613-4.616-4.613-4.616s-0.045-0.501 0.292-0.757l0.656-0.528c0.315-0.256 0.533-0.861 0.196-1.459-0.515-0.892-1.117-1.732-1.796-2.507-0.148-0.182-0.356-0.307-0.587-0.351l0.003 0.001zM16.772 6.667c-0.177 0-0.346 0.070-0.471 0.195s-0.195 0.295-0.195 0.471 0.070 0.346 0.195 0.471c0.125 0.125 0.295 0.195 0.471 0.195 1.687 0 3.087 0.551 4.195 1.607 0.569 0.577 1.013 1.261 1.304 2.011 0.292 0.751 0.425 1.552 0.391 2.355-0.004 0.088 0.010 0.175 0.040 0.257s0.076 0.158 0.135 0.222c0.12 0.13 0.286 0.208 0.463 0.215s0.349-0.056 0.48-0.175c0.13-0.12 0.208-0.286 0.215-0.463 0.041-0.987-0.123-1.973-0.481-2.893-0.36-0.925-0.907-1.767-1.605-2.472l-0.013-0.013c-1.375-1.313-3.115-1.983-5.123-1.983zM16.727 8.859c-0.177 0-0.346 0.070-0.471 0.195s-0.195 0.295-0.195 0.471 0.070 0.346 0.195 0.471c0.125 0.125 0.295 0.195 0.471 0.195h0.023c1.216 0.087 2.101 0.492 2.721 1.157 0.636 0.685 0.965 1.537 0.94 2.591-0.004 0.177 0.062 0.348 0.184 0.476s0.29 0.202 0.467 0.206c0.177 0.004 0.348-0.062 0.476-0.184s0.202-0.29 0.206-0.467c0.032-1.383-0.413-2.576-1.296-3.528v-0.003c-0.903-0.968-2.141-1.48-3.632-1.58l-0.023-0.003-0.067 0.001zM16.701 11.092c-0.089-0.008-0.179 0.002-0.264 0.030s-0.164 0.072-0.232 0.131c-0.068 0.059-0.123 0.131-0.162 0.211s-0.062 0.168-0.067 0.258 0.009 0.179 0.039 0.263c0.031 0.084 0.078 0.161 0.139 0.227s0.135 0.118 0.217 0.154 0.17 0.056 0.26 0.057c0.557 0.029 0.913 0.197 1.137 0.423 0.225 0.227 0.393 0.591 0.424 1.16 0.002 0.089 0.021 0.178 0.058 0.259s0.089 0.155 0.155 0.216c0.065 0.061 0.143 0.108 0.227 0.139s0.173 0.044 0.263 0.039c0.089-0.005 0.177-0.027 0.257-0.067s0.152-0.094 0.211-0.162c0.059-0.068 0.103-0.146 0.131-0.231s0.038-0.175 0.030-0.264c-0.043-0.8-0.293-1.507-0.807-2.027-0.516-0.52-1.219-0.773-2.016-0.816z"></path>
</symbol>
<symbol id="icon-blue-telegram" viewBox="0 0 32 32">
<path fill="#35aeff" style="fill: var(--color4, #35aeff)" d="M16 2.667c-7.36 0-13.333 5.973-13.333 13.333s5.973 13.333 13.333 13.333c7.36 0 13.333-5.973 13.333-13.333s-5.973-13.333-13.333-13.333zM22.187 11.733c-0.2 2.107-1.067 7.227-1.507 9.587-0.187 1-0.56 1.333-0.907 1.373-0.773 0.067-1.36-0.507-2.107-1-1.173-0.773-1.84-1.253-2.973-2-1.32-0.867-0.467-1.347 0.293-2.12 0.2-0.2 3.613-3.307 3.68-3.587 0.009-0.042 0.008-0.086-0.004-0.128s-0.033-0.080-0.063-0.112c-0.080-0.067-0.187-0.040-0.28-0.027-0.12 0.027-1.987 1.267-5.627 3.72-0.533 0.36-1.013 0.547-1.44 0.533-0.48-0.013-1.387-0.267-2.067-0.493-0.84-0.267-1.493-0.413-1.44-0.88 0.027-0.24 0.36-0.48 0.987-0.733 3.893-1.693 6.48-2.813 7.773-3.347 3.707-1.547 4.467-1.813 4.973-1.813 0.107 0 0.36 0.027 0.52 0.16 0.133 0.107 0.173 0.253 0.187 0.36-0.013 0.080 0.013 0.32 0 0.507z"></path>
</symbol>
<symbol id="icon-blue-tv" viewBox="0 0 32 32">
<path fill="#6b09e8" style="fill: var(--color3, #6b09e8)" d="M11.795 2.667h8.41c0 0 2.462 0 2.462 2.37v4.593c0 0 0 2.37-2.462 2.37h-2.872v1.333h2.167c0.736 0 1.333 0.597 1.333 1.333s-0.597 1.333-1.333 1.333h-7c-0.736 0-1.333-0.597-1.333-1.333s0.597-1.333 1.333-1.333h2.167v-1.333h-2.872c0 0-2.462 0-2.462-2.37v-4.593c0 0 0-2.37 2.462-2.37z"></path>
<path fill="#6b09e8" style="fill: var(--color3, #6b09e8)" d="M3.795 17.333h8.41c0 0 2.462 0 2.462 2.37v4.593c0 0 0 2.37-2.462 2.37h-2.872v1.333h2.167c0.736 0 1.333 0.597 1.333 1.333s-0.597 1.333-1.333 1.333h-7c-0.736 0-1.333-0.597-1.333-1.333s0.597-1.333 1.333-1.333h2.167v-1.333h-2.872c0 0-2.462 0-2.462-2.37v-4.593c0 0 0-2.37 2.462-2.37z"></path>
<path fill="#6b09e8" style="fill: var(--color3, #6b09e8)" d="M28.205 17.333h-8.41c-2.462 0-2.462 2.37-2.462 2.37v4.593c0 2.37 2.462 2.37 2.462 2.37h2.872v1.333h-2.167c-0.736 0-1.333 0.597-1.333 1.333s0.597 1.333 1.333 1.333h7c0.736 0 1.333-0.597 1.333-1.333s-0.597-1.333-1.333-1.333h-2.167v-1.333h2.872c2.462 0 2.462-2.37 2.462-2.37v-4.593c0-2.37-2.462-2.37-2.462-2.37z"></path>
</symbol>
<symbol id="icon-checked" viewBox="0 0 32 32">
<path fill="#ff8a00" style="fill: var(--color5, #ff8a00)" d="M7.111 0.889h17.778c3.436 0 6.222 2.786 6.222 6.222v17.778c0 3.436-2.786 6.222-6.222 6.222h-17.778c-3.436 0-6.222-2.786-6.222-6.222v-17.778c0-3.436 2.786-6.222 6.222-6.222z"></path>
<path fill="none" stroke="#ff8a00" style="stroke: var(--color5, #ff8a00)" stroke-linejoin="miter" stroke-linecap="butt" stroke-miterlimit="4" stroke-width="1.7778" d="M7.111 0.889h17.778c3.436 0 6.222 2.786 6.222 6.222v17.778c0 3.436-2.786 6.222-6.222 6.222h-17.778c-3.436 0-6.222-2.786-6.222-6.222v-17.778c0-3.436 2.786-6.222 6.222-6.222z"></path>
<path fill="none" stroke="#fff" style="stroke: var(--color6, #fff)" stroke-linejoin="miter" stroke-linecap="round" stroke-miterlimit="4" stroke-width="3.5556" d="M7.111 16l7.111 7.111 10.667-14.222"></path>
</symbol>
<symbol id="icon-circle-arrow" viewBox="0 0 32 32">
<path fill="none" stroke="#6c6ba2" style="stroke: var(--color1, #6c6ba2)" stroke-linejoin="miter" stroke-linecap="butt" stroke-miterlimit="4" stroke-width="0.5714" d="M16 0.286c8.679 0 15.714 7.036 15.714 15.714s-7.036 15.714-15.714 15.714c-8.679 0-15.714-7.036-15.714-15.714s7.036-15.714 15.714-15.714z"></path>
<path fill="none" stroke="#6c6ba2" style="stroke: var(--color1, #6c6ba2)" stroke-linejoin="miter" stroke-linecap="round" stroke-miterlimit="4" stroke-width="0.5714" d="M12.286 19.714l7.429-7.429M19.714 12.286v2.857M19.714 12.286h-2.857"></path>
</symbol>
<symbol id="icon-contacts" viewBox="0 0 32 32">
<path fill="#110178" style="fill: var(--color2, #110178)" d="M19.241 27.067l0.013 0.009c1.133 0.722 2.479 1.035 3.814 0.888s2.581-0.745 3.53-1.695l0.825-0.825c0.183-0.183 0.328-0.4 0.427-0.638s0.15-0.495 0.15-0.753c0-0.259-0.051-0.515-0.15-0.753s-0.244-0.456-0.427-0.638l-3.479-3.477c-0.183-0.183-0.4-0.328-0.638-0.427s-0.495-0.15-0.753-0.15c-0.258 0-0.514 0.051-0.753 0.15s-0.456 0.244-0.638 0.427c-0.369 0.369-0.869 0.576-1.391 0.576s-1.022-0.207-1.391-0.576l-5.564-5.565c-0.369-0.369-0.576-0.869-0.576-1.391s0.207-1.022 0.576-1.391c0.183-0.183 0.328-0.4 0.427-0.638s0.15-0.495 0.15-0.753-0.051-0.514-0.15-0.753c-0.099-0.239-0.244-0.456-0.427-0.638l-3.478-3.477c-0.369-0.369-0.869-0.576-1.391-0.576s-1.022 0.207-1.391 0.576l-0.826 0.825c-0.95 0.95-1.548 2.196-1.694 3.531s0.167 2.681 0.889 3.814l0.008 0.013c3.812 5.64 8.669 10.497 14.309 14.308z"></path>
</symbol>
<symbol id="icon-dashboard-icon" viewBox="0 0 32 32">
<path fill="#6b09e8" style="fill: var(--color3, #6b09e8)" d="M19.976 14.805h6.591c1.84 0 2.767-0.927 2.767-2.839v-6.475c0-1.912-0.927-2.825-2.767-2.825h-6.591c-1.854 0-2.781 0.913-2.781 2.825v6.475c0 1.912 0.927 2.839 2.781 2.839z"></path>
<path fill="#6b09e8" style="fill: var(--color3, #6b09e8)" d="M12.038 29.333h-6.605c-1.84 0-2.767-0.913-2.767-2.825v-6.489c0-1.898 0.927-2.825 2.767-2.825h6.605c1.84 0 2.767 0.927 2.767 2.825v6.489c0 1.912-0.927 2.825-2.767 2.825z"></path>
<path fill="#6b09e8" style="fill: var(--color3, #6b09e8)" d="M26.567 29.333h-6.591c-1.854 0-2.781-0.913-2.781-2.825v-6.489c0-1.898 0.927-2.825 2.781-2.825h6.591c1.84 0 2.767 0.927 2.767 2.825v6.489c0 1.912-0.927 2.825-2.767 2.825z"></path>
<path fill="#6b09e8" style="fill: var(--color3, #6b09e8)" d="M12.038 14.805h-6.605c-1.84 0-2.767-0.927-2.767-2.839v-6.475c0-1.912 0.927-2.825 2.767-2.825h6.605c1.84 0 2.767 0.913 2.767 2.825v6.475c0 1.912-0.927 2.839-2.767 2.839z"></path>
</symbol>
<symbol id="icon-edit" viewBox="0 0 32 32">
<path fill="#6c6ba2" style="fill: var(--color1, #6c6ba2)" d="M8 7.333c-0.368 0-0.667 0.298-0.667 0.667v16c0 0.368 0.298 0.667 0.667 0.667h16c0.368 0 0.667-0.299 0.667-0.667v-10.667c0-0.368-0.299-0.667-0.667-0.667s-0.667 0.298-0.667 0.667v10h-14.667v-14.667h10c0.368 0 0.667-0.298 0.667-0.667s-0.299-0.667-0.667-0.667h-10.667z"></path>
<path fill="#6c6ba2" style="fill: var(--color1, #6c6ba2)" d="M24.498 8.443c0.245-0.275 0.22-0.697-0.055-0.941s-0.697-0.22-0.941 0.055l-10.667 12c-0.245 0.275-0.22 0.697 0.055 0.941s0.697 0.22 0.941-0.055l10.667-12z"></path>
</symbol>
<symbol id="icon-exit" viewBox="0 0 32 32">
<path fill="#ff8a00" style="fill: var(--color5, #ff8a00)" d="M16 32c8.024 0 14.667-6.768 14.667-14.909 0-4.487-2.013-8.376-4.774-10.934-1.265-1.169-2.89 0.57-1.639 1.783 2.445 2.266 3.954 5.511 3.969 9.15 0.014 6.899-5.435 12.425-12.222 12.425s-12.208-5.525-12.208-12.425c0.014-3.669 1.524-6.899 3.954-9.165 1.265-1.228-0.374-2.953-1.639-1.783-2.775 2.558-4.774 6.461-4.774 10.948 0 8.142 6.658 14.909 14.667 14.909zM16 16.944c0.69 0 1.165-0.512 1.165-1.243v-13.126c0-0.745-0.475-1.242-1.165-1.242s-1.15 0.497-1.15 1.242v13.126c0 0.731 0.46 1.243 1.15 1.243z"></path>
</symbol>
<symbol id="icon-invisible" viewBox="0 0 32 32">
<path fill="#626270" style="fill: var(--color7, #626270)" d="M21.782 23.633l3.501 3.501 1.768-1.768-3.031-3.031c2.057-1.453 3.85-3.512 5.172-6.156 0.092-0.185 0.141-0.389 0.141-0.596s-0.048-0.411-0.141-0.596c-2.877-5.756-7.987-8.737-13.192-8.737-2.223 0-4.428 0.544-6.45 1.615l-2.999-2.999-1.768 1.768 2.623 2.623c-1.817 1.419-3.401 3.334-4.599 5.73-0.092 0.185-0.141 0.389-0.141 0.596s0.048 0.411 0.141 0.596c2.877 5.756 7.987 8.737 13.192 8.737 1.98 0 3.947-0.432 5.782-1.284zM22.101 20.416c1.695-1.101 3.217-2.705 4.392-4.833-2.491-4.507-6.535-6.667-10.493-6.667-1.503 0-3.018 0.311-4.455 0.943l2.333 2.332c0.631-0.395 1.366-0.609 2.122-0.609 1.061 0 2.078 0.421 2.828 1.172s1.172 1.768 1.172 2.828c0 0.757-0.214 1.491-0.609 2.122l2.71 2.71zM17.458 19.308l2.284 2.284c-1.221 0.441-2.485 0.658-3.741 0.658-3.959 0-8.003-2.16-10.493-6.667 1.038-1.877 2.344-3.347 3.802-4.424l2.966 2.966c-0.18 0.46-0.275 0.954-0.275 1.458 0 1.061 0.421 2.078 1.172 2.828s1.768 1.172 2.828 1.172c0.504 0 0.998-0.095 1.458-0.275z"></path>
</symbol>
<symbol id="icon-left" viewBox="0 0 32 32">
<path fill="none" stroke="#6c6ba2" style="stroke: var(--color1, #6c6ba2)" stroke-linejoin="miter" stroke-linecap="butt" stroke-miterlimit="4" stroke-width="0.6667" d="M16 0.333c8.652 0 15.667 7.014 15.667 15.667s-7.014 15.667-15.667 15.667c-8.652 0-15.667-7.014-15.667-15.667s7.014-15.667 15.667-15.667z"></path>
<path fill="none" stroke="#6c6ba2" style="stroke: var(--color1, #6c6ba2)" stroke-linejoin="miter" stroke-linecap="round" stroke-miterlimit="4" stroke-width="0.6667" d="M22.128 16h-12.257M9.872 16l2.795-2.667M9.872 16l2.795 2.667"></path>
</symbol>
<symbol id="icon-orange-net" viewBox="0 0 32 32">
<path fill="#ff8a00" style="fill: var(--color5, #ff8a00)" d="M21.813 18.667c0.107-0.88 0.187-1.76 0.187-2.667s-0.080-1.787-0.187-2.667h4.507c0.213 0.853 0.347 1.747 0.347 2.667s-0.133 1.813-0.347 2.667zM19.453 26.080c0.8-1.48 1.413-3.080 1.84-4.747h3.933c-1.292 2.224-3.341 3.909-5.773 4.747zM19.12 18.667h-6.24c-0.133-0.88-0.213-1.76-0.213-2.667s0.080-1.8 0.213-2.667h6.24c0.12 0.867 0.213 1.76 0.213 2.667s-0.093 1.787-0.213 2.667zM16 26.613c-1.107-1.6-2-3.373-2.547-5.28h5.093c-0.547 1.907-1.44 3.68-2.547 5.28zM10.667 10.667h-3.893c1.278-2.231 3.326-3.918 5.76-4.747-0.8 1.48-1.4 3.080-1.867 4.747zM6.773 21.333h3.893c0.467 1.667 1.067 3.267 1.867 4.747-2.429-0.837-4.474-2.522-5.76-4.747zM5.68 18.667c-0.213-0.853-0.347-1.747-0.347-2.667s0.133-1.813 0.347-2.667h4.507c-0.107 0.88-0.187 1.76-0.187 2.667s0.080 1.787 0.187 2.667zM16 5.373c1.107 1.6 2 3.387 2.547 5.293h-5.093c0.547-1.907 1.44-3.693 2.547-5.293zM25.227 10.667h-3.933c-0.418-1.651-1.036-3.245-1.84-4.747 2.453 0.84 4.493 2.533 5.773 4.747zM16 2.667c-7.373 0-13.333 6-13.333 13.333 0 3.536 1.405 6.928 3.905 9.428 1.238 1.238 2.708 2.22 4.326 2.89s3.351 1.015 5.102 1.015c3.536 0 6.928-1.405 9.428-3.905s3.905-5.892 3.905-9.428c0-1.751-0.345-3.485-1.015-5.102s-1.652-3.088-2.89-4.326-2.708-2.22-4.326-2.89c-1.618-0.67-3.351-1.015-5.102-1.015z"></path>
</symbol>
<symbol id="icon-orange-phone" viewBox="0 0 32 32">
<path fill="#ff8a00" style="fill: var(--color5, #ff8a00)" d="M18.387 3.52l-0.76-0.107c-2.284-0.33-4.615-0.004-6.721 0.941s-3.9 2.468-5.173 4.393c-1.354 1.84-2.162 4.025-2.329 6.304s0.312 4.558 1.383 6.576c0.11 0.202 0.178 0.424 0.201 0.653s0 0.46-0.067 0.68c-0.547 1.88-1.053 3.773-1.587 5.76l0.667-0.2c1.8-0.48 3.6-0.96 5.4-1.4 0.38-0.079 0.775-0.042 1.133 0.107 1.615 0.788 3.38 1.222 5.176 1.272s3.582-0.285 5.239-0.982 3.144-1.741 4.364-3.060c1.22-1.32 2.143-2.885 2.708-4.591s0.759-3.513 0.568-5.3c-0.191-1.787-0.761-3.512-1.674-5.060s-2.145-2.883-3.616-3.915c-1.471-1.032-3.145-1.738-4.912-2.070zM21.747 21.013c-0.485 0.434-1.075 0.731-1.713 0.863s-1.298 0.091-1.914-0.116c-2.794-0.787-5.218-2.54-6.84-4.947-0.62-0.851-1.118-1.785-1.48-2.773-0.196-0.574-0.232-1.19-0.102-1.782s0.418-1.138 0.836-1.578c0.203-0.259 0.48-0.451 0.794-0.551s0.651-0.103 0.966-0.009c0.267 0.067 0.453 0.453 0.693 0.747 0.195 0.551 0.423 1.089 0.68 1.613 0.195 0.267 0.277 0.601 0.227 0.928s-0.227 0.621-0.493 0.818c-0.6 0.533-0.507 0.973-0.080 1.573 0.943 1.359 2.245 2.43 3.76 3.093 0.427 0.187 0.747 0.227 1.027-0.213 0.12-0.173 0.28-0.32 0.413-0.48 0.773-0.973 0.533-0.96 1.76-0.427 0.391 0.164 0.769 0.356 1.133 0.573 0.36 0.213 0.907 0.44 0.987 0.76 0.077 0.347 0.057 0.709-0.059 1.045s-0.321 0.634-0.595 0.861z"></path>
</symbol>
<symbol id="icon-orange-ring" viewBox="0 0 32 32">
<path fill="#ff8a00" style="fill: var(--color5, #ff8a00)" d="M22.235 3.504l0.452 0.101c1.18 0.264 2.264 0.849 3.132 1.692s1.484 1.909 1.782 3.081c1.063 4.19 1.063 8.579 0 12.769-0.297 1.172-0.914 2.239-1.781 3.081s-1.951 1.428-3.131 1.692l-0.453 0.1c-2.673 0.598-5.416 0.816-8.149 0.649l-3.641 3.257c-0.089 0.079-0.197 0.133-0.314 0.157s-0.238 0.015-0.35-0.025c-0.112-0.040-0.212-0.108-0.289-0.2s-0.128-0.201-0.148-0.319l-0.62-3.701c-1.111-0.308-2.121-0.904-2.928-1.729s-1.381-1.847-1.664-2.965c-1.063-4.19-1.063-8.579 0-12.769 0.297-1.172 0.914-2.238 1.781-3.081s1.951-1.428 3.131-1.692l0.452-0.1c4.195-0.938 8.545-0.938 12.74 0zM10.62 8.269c-0.248-0.036-0.501 0.014-0.716 0.141h-0.019c-0.5 0.293-0.951 0.663-1.335 1.097-0.32 0.369-0.493 0.743-0.539 1.103-0.027 0.213-0.008 0.429 0.055 0.633l0.024 0.013c0.36 1.057 0.829 2.075 1.403 3.032 0.739 1.345 1.649 2.588 2.707 3.7l0.032 0.045 0.051 0.037 0.031 0.036 0.037 0.032c1.116 1.061 2.362 1.975 3.709 2.72 1.54 0.839 2.475 1.235 3.036 1.4v0.008c0.164 0.051 0.313 0.073 0.464 0.073 0.478-0.035 0.931-0.23 1.285-0.552 0.433-0.384 0.8-0.836 1.085-1.339v-0.009c0.268-0.507 0.177-0.984-0.209-1.308-0.777-0.679-1.617-1.281-2.508-1.8-0.597-0.324-1.204-0.128-1.449 0.2l-0.524 0.661c-0.269 0.328-0.757 0.283-0.757 0.283l-0.013 0.008c-3.641-0.929-4.613-4.616-4.613-4.616s-0.045-0.501 0.292-0.757l0.656-0.528c0.315-0.256 0.533-0.861 0.196-1.459-0.515-0.892-1.117-1.732-1.796-2.507-0.148-0.182-0.356-0.307-0.587-0.351l0.003 0.001zM16.772 6.667c-0.177 0-0.346 0.070-0.471 0.195s-0.195 0.295-0.195 0.471 0.070 0.346 0.195 0.471c0.125 0.125 0.295 0.195 0.471 0.195 1.687 0 3.087 0.551 4.195 1.607 0.569 0.577 1.013 1.261 1.304 2.011 0.292 0.751 0.425 1.552 0.391 2.355-0.004 0.088 0.010 0.175 0.040 0.257s0.076 0.158 0.135 0.222c0.12 0.13 0.286 0.208 0.463 0.215s0.349-0.056 0.48-0.175c0.13-0.12 0.208-0.286 0.215-0.463 0.041-0.987-0.123-1.973-0.481-2.893-0.36-0.925-0.907-1.767-1.605-2.472l-0.013-0.013c-1.375-1.313-3.115-1.983-5.123-1.983zM16.727 8.859c-0.177 0-0.346 0.070-0.471 0.195s-0.195 0.295-0.195 0.471 0.070 0.346 0.195 0.471c0.125 0.125 0.295 0.195 0.471 0.195h0.023c1.216 0.087 2.101 0.492 2.721 1.157 0.636 0.685 0.965 1.537 0.94 2.591-0.004 0.177 0.062 0.348 0.184 0.476s0.29 0.202 0.467 0.206c0.177 0.004 0.348-0.062 0.476-0.184s0.202-0.29 0.206-0.467c0.032-1.383-0.413-2.576-1.296-3.528v-0.003c-0.903-0.968-2.141-1.48-3.632-1.58l-0.023-0.003-0.067 0.001zM16.701 11.092c-0.089-0.008-0.179 0.002-0.264 0.030s-0.164 0.072-0.232 0.131c-0.068 0.059-0.123 0.131-0.162 0.211s-0.062 0.168-0.067 0.258 0.009 0.179 0.039 0.263c0.031 0.084 0.078 0.161 0.139 0.227s0.135 0.118 0.217 0.154 0.17 0.056 0.26 0.057c0.557 0.029 0.913 0.197 1.137 0.423 0.225 0.227 0.393 0.591 0.424 1.16 0.002 0.089 0.021 0.178 0.058 0.259s0.089 0.155 0.155 0.216c0.065 0.061 0.143 0.108 0.227 0.139s0.173 0.044 0.263 0.039c0.089-0.005 0.177-0.027 0.257-0.067s0.152-0.094 0.211-0.162c0.059-0.068 0.103-0.146 0.131-0.231s0.038-0.175 0.030-0.264c-0.043-0.8-0.293-1.507-0.807-2.027-0.516-0.52-1.219-0.773-2.016-0.816z"></path>
</symbol>
<symbol id="icon-orange-telegram" viewBox="0 0 32 32">
<path fill="#ff8a00" style="fill: var(--color5, #ff8a00)" d="M16 2.667c-7.36 0-13.333 5.973-13.333 13.333s5.973 13.333 13.333 13.333c7.36 0 13.333-5.973 13.333-13.333s-5.973-13.333-13.333-13.333zM22.187 11.733c-0.2 2.107-1.067 7.227-1.507 9.587-0.187 1-0.56 1.333-0.907 1.373-0.773 0.067-1.36-0.507-2.107-1-1.173-0.773-1.84-1.253-2.973-2-1.32-0.867-0.467-1.347 0.293-2.12 0.2-0.2 3.613-3.307 3.68-3.587 0.009-0.042 0.008-0.086-0.004-0.128s-0.033-0.080-0.063-0.112c-0.080-0.067-0.187-0.040-0.28-0.027-0.12 0.027-1.987 1.267-5.627 3.72-0.533 0.36-1.013 0.547-1.44 0.533-0.48-0.013-1.387-0.267-2.067-0.493-0.84-0.267-1.493-0.413-1.44-0.88 0.027-0.24 0.36-0.48 0.987-0.733 3.893-1.693 6.48-2.813 7.773-3.347 3.707-1.547 4.467-1.813 4.973-1.813 0.107 0 0.36 0.027 0.52 0.16 0.133 0.107 0.173 0.253 0.187 0.36-0.013 0.080 0.013 0.32 0 0.507z"></path>
</symbol>
<symbol id="icon-profile" viewBox="0 0 32 32">
<path fill="#110178" style="fill: var(--color2, #110178)" d="M16 30.667c8.032 0 14.682-6.661 14.682-14.675 0-8.028-6.664-14.675-14.696-14.675-8.017 0-14.667 6.647-14.667 14.675 0 8.013 6.664 14.675 14.682 14.675zM16 28.222c-6.794 0-12.22-5.438-12.22-12.229s5.412-12.229 12.206-12.229c6.794 0 12.249 5.438 12.249 12.229s-5.441 12.229-12.235 12.229zM25.846 25.474l-0.043-0.158c-0.705-2.115-4.505-4.431-9.802-4.431-5.283 0-9.083 2.316-9.802 4.417l-0.043 0.173c2.591 2.561 7.039 4.057 9.845 4.057 2.821 0 7.226-1.482 9.846-4.057zM16 18.439c2.778 0.029 4.937-2.331 4.937-5.424 0-2.906-2.173-5.309-4.937-5.309s-4.951 2.403-4.937 5.309c0.014 3.093 2.173 5.395 4.937 5.424z"></path>
</symbol>
<symbol id="icon-right" viewBox="0 0 32 32">
<path fill="none" stroke="#6c6ba2" style="stroke: var(--color1, #6c6ba2)" stroke-linejoin="miter" stroke-linecap="butt" stroke-miterlimit="4" stroke-width="0.6667" d="M16 0.333c8.652 0 15.667 7.014 15.667 15.667s-7.014 15.667-15.667 15.667c-8.652 0-15.667-7.014-15.667-15.667s7.014-15.667 15.667-15.667z"></path>
<path fill="none" stroke="#6c6ba2" style="stroke: var(--color1, #6c6ba2)" stroke-linejoin="miter" stroke-linecap="round" stroke-miterlimit="4" stroke-width="0.6667" d="M9.872 16h12.257M22.128 16l-2.795 2.667M22.128 16l-2.795-2.667"></path>
</symbol>
<symbol id="icon-safe" viewBox="0 0 32 32">
<path fill="none" stroke="#6c6ba2" style="stroke: var(--color1, #6c6ba2)" stroke-linejoin="round" stroke-linecap="round" stroke-miterlimit="4" stroke-width="1.3333" d="M5.333 22.667v2.667c0 0.707 0.281 1.385 0.781 1.886s1.178 0.781 1.886 0.781h16c0.707 0 1.385-0.281 1.886-0.781s0.781-1.178 0.781-1.886v-2.667M9.333 14.667l6.667 6.667M16 21.333l6.667-6.667M16 21.333v-16"></path>
</symbol>
<symbol id="icon-satellite" viewBox="0 0 32 32">
<path fill="#b883fc" style="fill: var(--color8, #b883fc)" opacity="0.4" d="M26.499 7.188c-0.139 0.139-0.306 0.234-0.483 0.285v3.272h-0.622v-3.272c-0.080-0.023-0.158-0.055-0.232-0.096l-1.297 1.298-0.44-0.44 1.297-1.297c-0.040-0.074-0.074-0.152-0.096-0.232h-3.272v-0.621h3.272c0.051-0.177 0.145-0.344 0.284-0.483 0.438-0.438 1.149-0.438 1.586 0 0.439 0.438 0.439 1.149 0 1.586h0.002z"></path>
<path fill="#caa1ff" style="fill: var(--color9, #caa1ff)" opacity="0.4" d="M14.572 20.171c-0.417 0.416-1.093 0.416-1.51 0l-1.165-1.165c-0.2-0.2-0.313-0.472-0.313-0.755s0.113-0.555 0.313-0.755l1.152-1.151 2.675 2.675-1.152 1.152h0.001z"></path>
<path fill="#a561ff" style="fill: var(--color10, #a561ff)" opacity="0.4" d="M20.832 16.577l-1.749 1.748-0.479-0.479 1.468-1.468c0.417-0.417 0.367-1.144-0.109-1.62l-0.534-0.534 0.422-0.422c2.562 1.81 6.129 1.567 8.421-0.725l-9.281-9.281c-2.293 2.293-2.535 5.862-0.725 8.422l-0.422 0.422-0.535-0.535c-0.477-0.478-1.202-0.527-1.62-0.109l-1.468 1.468-0.547-0.547 1.749-1.749-11.169-11.168-4.253 4.252 11.169 11.17 1.749-1.749 0.547 0.547-1.469 1.469c-0.417 0.417-0.367 1.142 0.109 1.619l2.653 2.653c0.478 0.478 1.203 0.526 1.62 0.111l1.469-1.469 0.479 0.479-1.748 1.748 11.169 11.17 4.253-4.253-11.169-11.167z"></path>
<path fill="#dbbfff" style="fill: var(--color11, #dbbfff)" opacity="0.4" d="M29.305 26.459l-0.994 0.995-0.992-0.993 0.993-0.994 0.993 0.992zM28.866 28.010l0.994-0.994 0.992 0.993-0.994 0.993-0.992-0.992zM28.007 30.855l-0.992-0.993 0.993-0.994 0.993 0.992-0.994 0.995zM25.466 28.313l0.994-0.993 0.992 0.991-0.993 0.994-0.992-0.992h-0.001zM23.918 26.766l0.993-0.995 0.993 0.993-0.993 0.994-0.993-0.992zM22.368 25.215l0.994-0.993 0.992 0.993-0.994 0.993-0.993-0.993h0.001zM20.821 23.668l0.993-0.993 0.993 0.992-0.994 0.994-0.992-0.993zM19.273 22.119l0.993-0.993 0.992 0.992-0.994 0.994-0.992-0.993h0.001zM17.723 20.572l0.994-0.995 0.992 0.993-0.993 0.993-0.993-0.992v0.001zM20.569 17.725l0.993 0.993-0.994 0.994-0.992-0.993 0.993-0.994zM23.109 20.266l-0.994 0.994-0.992-0.993 0.994-0.993 0.993 0.992h-0.001zM24.658 21.815l-0.994 0.993-0.992-0.992 0.994-0.994 0.993 0.993h-0.001zM26.205 23.363l-0.994 0.993-0.992-0.992 0.994-0.994 0.992 0.993zM27.753 24.913l-0.994 0.993-0.992-0.992 0.994-0.994 0.992 0.993z"></path>
<path fill="#dbbfff" style="fill: var(--color11, #dbbfff)" opacity="0.4" d="M12.727 9.882l-0.994 0.993-0.992-0.992 0.993-0.994 0.992 0.993h0.001zM12.29 11.431l0.994-0.993 0.992 0.992-0.993 0.993-0.993-0.992zM11.43 14.276l-0.992-0.992 0.994-0.994 0.993 0.993-0.994 0.994-0.001-0.001zM8.89 11.735l0.994-0.994 0.992 0.993-0.993 0.993-0.993-0.992zM7.342 10.186l0.993-0.994 0.993 0.992-0.994 0.994-0.992-0.993v0.001zM5.793 8.637l0.994-0.994 0.993 0.993-0.994 0.994-0.992-0.993h-0.001zM4.244 7.088l0.993-0.994 0.993 0.992-0.993 0.994-0.992-0.992h-0.001zM2.696 5.54l0.993-0.993 0.992 0.992-0.994 0.994-0.992-0.993h0.001zM1.146 3.991l0.994-0.994 0.992 0.993-0.994 0.994-0.993-0.993h0.001zM3.993 1.145l0.992 0.993-0.994 0.994-0.992-0.992 0.994-0.994v-0.001zM6.534 3.687l-0.994 0.994-0.993-0.992 0.993-0.995 0.993 0.993h0.001zM8.082 5.235l-0.994 0.994-0.993-0.993 0.994-0.993 0.993 0.992zM9.629 6.784l-0.994 0.994-0.992-0.993 0.994-0.994 0.992 0.993zM11.178 8.332l-0.993 0.994-0.992-0.993 0.994-0.993 0.992 0.992h-0.001z"></path>
<path fill="#b883fc" style="fill: var(--color8, #b883fc)" opacity="0.4" d="M18.989 13.079c2.563 2.564 6.719 2.563 9.282 0l-4.64-4.641-4.642 4.641z"></path>
<path fill="#b883fc" style="fill: var(--color8, #b883fc)" opacity="0.4" d="M19.961 14.76l-1.327-1.327-5.202 5.201 1.327 1.326c0.478 0.478 1.204 0.526 1.62 0.111l3.691-3.691c0.417-0.417 0.367-1.144-0.109-1.62v0.001z"></path>
</symbol>
<symbol id="icon-search" viewBox="0 0 32 32">
<path fill="#6c6ba2" style="fill: var(--color1, #6c6ba2)" opacity="0.5" d="M28.543 26.337l-5.881-5.881c1.416-1.885 2.18-4.179 2.177-6.536 0-6.021-4.899-10.92-10.92-10.92s-10.92 4.899-10.92 10.92c0 6.021 4.899 10.92 10.92 10.92 2.357 0.003 4.651-0.762 6.536-2.177l5.881 5.881c0.298 0.266 0.686 0.408 1.085 0.397s0.779-0.175 1.061-0.457 0.446-0.662 0.457-1.061c0.011-0.399-0.131-0.787-0.397-1.085zM6.12 13.92c0-1.543 0.457-3.051 1.315-4.333s2.075-2.282 3.501-2.873c1.425-0.59 2.994-0.745 4.507-0.444s2.903 1.044 3.994 2.135c1.091 1.091 1.834 2.481 2.135 3.994s0.147 3.081-0.444 4.507c-0.59 1.425-1.59 2.643-2.873 3.501s-2.791 1.315-4.333 1.315c-2.068-0.003-4.050-0.825-5.513-2.287s-2.285-3.445-2.287-5.513z"></path>
</symbol>
<symbol id="icon-small-arrow" viewBox="0 0 32 32">
<path fill="none" stroke="#6c6ba2" style="stroke: var(--color1, #6c6ba2)" stroke-linejoin="miter" stroke-linecap="butt" stroke-miterlimit="4" stroke-width="1" d="M16 0.5c8.56 0 15.5 6.94 15.5 15.5s-6.94 15.5-15.5 15.5c-8.56 0-15.5-6.94-15.5-15.5s6.94-15.5 15.5-15.5z"></path>
<path fill="none" stroke="#6c6ba2" style="stroke: var(--color1, #6c6ba2)" stroke-linejoin="miter" stroke-linecap="round" stroke-miterlimit="4" stroke-width="1" d="M9.5 22.5l13-13M22.5 9.5v5M22.5 9.5h-5"></path>
</symbol>
<symbol id="icon-tower" viewBox="0 0 30 32">
<path fill="#caa1ff" style="fill: var(--color9, #caa1ff)" opacity="0.4" d="M7.549 3.643c0.205-0.226 0.197-0.571-0.019-0.787l-0.192-0.191c-0.112-0.111-0.263-0.17-0.421-0.167s-0.307 0.071-0.412 0.187c-1.832 2.006-2.949 4.667-2.949 7.581 0 2.883 1.093 5.518 2.889 7.516 0.105 0.116 0.255 0.185 0.414 0.191 0.158 0.005 0.312-0.056 0.423-0.167l0.192-0.191c0.216-0.214 0.226-0.558 0.022-0.784-1.565-1.747-2.519-4.048-2.519-6.565 0-2.546 0.974-4.87 2.572-6.624zM23.362 2.686c-0.105-0.116-0.255-0.184-0.413-0.187s-0.309 0.057-0.421 0.167l-0.192 0.191c-0.217 0.216-0.226 0.561-0.019 0.787 1.597 1.755 2.572 4.078 2.572 6.624 0 2.517-0.952 4.818-2.519 6.565-0.202 0.226-0.194 0.57 0.022 0.784l0.192 0.191c0.112 0.111 0.265 0.172 0.423 0.167 0.158-0.003 0.307-0.074 0.414-0.191 1.796-1.998 2.889-4.633 2.889-7.516 0-2.915-1.119-5.575-2.95-7.581h0.002z"></path>
<path fill="#dbbfff" style="fill: var(--color11, #dbbfff)" opacity="0.4" d="M5.030 1.15c0.211-0.226 0.204-0.575-0.014-0.792l-0.192-0.191c-0.11-0.11-0.261-0.17-0.418-0.167s-0.306 0.069-0.411 0.182c-2.477 2.648-3.994 6.194-3.994 10.083 0 3.859 1.492 7.379 3.935 10.021 0.107 0.115 0.255 0.182 0.412 0.185s0.309-0.057 0.419-0.169l0.192-0.191c0.217-0.216 0.224-0.565 0.017-0.789-2.205-2.389-3.553-5.57-3.553-9.058 0-3.517 1.37-6.722 3.607-9.116h-0.002zM25.872 0.182c-0.105-0.113-0.255-0.18-0.411-0.182-0.156-0.003-0.307 0.057-0.418 0.167l-0.192 0.19c-0.219 0.217-0.226 0.568-0.015 0.792 2.237 2.396 3.607 5.6 3.607 9.117 0 3.488-1.348 6.669-3.553 9.058-0.209 0.226-0.2 0.573 0.017 0.791l0.192 0.189c0.11 0.111 0.261 0.17 0.419 0.167s0.306-0.069 0.413-0.184c2.443-2.642 3.935-6.162 3.935-10.021 0-3.891-1.518-7.436-3.994-10.085z"></path>
<path fill="#a561ff" style="fill: var(--color10, #a561ff)" opacity="0.4" d="M11.229 27.63l8.070-3.287 1.205 3.287h-9.275zM14.933 7.453c-1.565 0-2.833 1.259-2.833 2.814 0 0.932 0.457 1.758 1.159 2.271l-6.758 18.44c-0.146 0.395 0.061 0.833 0.458 0.976 0.087 0.032 0.175 0.047 0.263 0.047 0.312 0 0.608-0.192 0.721-0.502l0.998-2.724h11.981l0.998 2.724c0.114 0.31 0.407 0.502 0.721 0.502 0.087 0 0.175-0.015 0.261-0.047 0.399-0.145 0.604-0.582 0.46-0.976l-6.758-18.44c0.703-0.512 1.161-1.339 1.161-2.271 0-1.554-1.27-2.814-2.833-2.814h-0.002zM14.697 13.071c0.078 0.007 0.156 0.010 0.236 0.010s0.158-0.003 0.236-0.010l0.020 0.057-0.761 0.674 0.268-0.732zM10.661 24.086h6.232l-7.325 2.984 1.095-2.984h-0.002zM17.879 20.465l0.908 2.477h-6.174l5.266-2.477zM12.075 20.226h3.624l-4.378 2.060 0.755-2.060h-0.002zM16.609 16.999l0.764 2.084h-3.879l3.115-2.084zM13.412 16.579h1.764l-2.338 1.563 0.572-1.563h0.002zM15.614 14.285l0.421 1.15h-1.72l1.299-1.15z"></path>
<path fill="#b883fc" style="fill: var(--color8, #b883fc)" opacity="0.4" d="M17.767 10.267c0-1.554-1.27-2.814-2.833-2.814v5.627c0.080 0 0.158-0.003 0.236-0.010l0.020 0.057-0.256 0.228v1.532l0.681-0.604 0.421 1.15h-1.102v1.143h0.243l-0.243 0.162v1.377l1.675-1.119 0.764 2.084h-2.439v1.143h0.766l-0.766 0.361v1.266l2.945-1.386 0.908 2.477h-3.853v1.143h1.959l-1.959 0.797v1.236l4.366-1.779 1.205 3.287h-5.571v1.143h5.991l0.998 2.724c0.114 0.31 0.407 0.502 0.721 0.502 0.087 0 0.175-0.015 0.261-0.047 0.399-0.145 0.604-0.582 0.46-0.976l-6.758-18.44c0.703-0.512 1.161-1.339 1.161-2.271l-0.002 0.005zM20.854 5.196c-0.105-0.12-0.255-0.192-0.414-0.197-0.16-0.007-0.316 0.054-0.429 0.167l-0.192 0.192c-0.214 0.212-0.226 0.55-0.029 0.777 0.963 1.113 1.545 2.556 1.545 4.134 0 1.551-0.562 2.972-1.494 4.075-0.192 0.228-0.177 0.561 0.034 0.77l0.194 0.192c0.114 0.113 0.27 0.174 0.431 0.167s0.312-0.081 0.416-0.202c1.149-1.352 1.844-3.097 1.844-5.002 0-1.935-0.718-3.709-1.901-5.071l-0.003-0.002zM9.856 5.164c-0.114-0.113-0.268-0.172-0.428-0.167s-0.311 0.078-0.414 0.197c-1.185 1.362-1.901 3.134-1.901 5.071 0 1.905 0.694 3.65 1.842 5.002 0.104 0.123 0.255 0.196 0.416 0.202s0.317-0.052 0.433-0.165l0.194-0.192c0.211-0.209 0.226-0.544 0.034-0.77-0.932-1.104-1.494-2.525-1.494-4.075 0-1.578 0.582-3.021 1.545-4.134 0.197-0.226 0.183-0.565-0.029-0.777l-0.194-0.192h-0.003z"></path>
</symbol>
<symbol id="icon-tv" viewBox="0 0 53 32">
<path fill="#fff" style="fill: var(--color6, #fff)" d="M4.267 0h44.8c2.356 0 4.267 1.91 4.267 4.267v23.467c0 2.356-1.91 4.267-4.267 4.267h-44.8c-2.356 0-4.267-1.91-4.267-4.267v-23.467c0-2.356 1.91-4.267 4.267-4.267z"></path>
<path fill="#6c6ba2" style="fill: var(--color1, #6c6ba2)" opacity="0.5" d="M17.587 27.378c-0.655 0-1.202-0.219-1.64-0.657s-0.658-0.985-0.659-1.641v-18.159c0-0.655 0.219-1.202 0.659-1.64s0.986-0.658 1.64-0.659h18.16c0.654 0 1.201 0.22 1.64 0.659s0.658 0.986 0.657 1.64v18.16c0 0.654-0.219 1.201-0.657 1.64s-0.985 0.658-1.641 0.657h-18.159zM22.346 20.321h1.422v-7.219h3.090l2.652 7.219h1.532l3.228-8.643h-1.643l-2.349 6.484-2.298-6.482h-9.244v1.422h3.611l-0.001 7.219z"></path>
</symbol>
<symbol id="icon-tvchannels" viewBox="0 0 32 32">
<path fill="#110178" style="fill: var(--color2, #110178)" d="M11.795 2.667h8.41c0 0 2.462 0 2.462 2.37v4.593c0 0 0 2.37-2.462 2.37h-2.872v1.333h2.167c0.736 0 1.333 0.597 1.333 1.333s-0.597 1.333-1.333 1.333h-7c-0.736 0-1.333-0.597-1.333-1.333s0.597-1.333 1.333-1.333h2.167v-1.333h-2.872c0 0-2.462 0-2.462-2.37v-4.593c0 0 0-2.37 2.462-2.37z"></path>
<path fill="#110178" style="fill: var(--color2, #110178)" d="M3.795 17.333h8.41c0 0 2.462 0 2.462 2.37v4.593c0 0 0 2.37-2.462 2.37h-2.872v1.333h2.167c0.736 0 1.333 0.597 1.333 1.333s-0.597 1.333-1.333 1.333h-7c-0.736 0-1.333-0.597-1.333-1.333s0.597-1.333 1.333-1.333h2.167v-1.333h-2.872c0 0-2.462 0-2.462-2.37v-4.593c0 0 0-2.37 2.462-2.37z"></path>
<path fill="#110178" style="fill: var(--color2, #110178)" d="M28.205 17.333h-8.41c-2.462 0-2.462 2.37-2.462 2.37v4.593c0 2.37 2.462 2.37 2.462 2.37h2.872v1.333h-2.167c-0.736 0-1.333 0.597-1.333 1.333s0.597 1.333 1.333 1.333h7c0.736 0 1.333-0.597 1.333-1.333s-0.597-1.333-1.333-1.333h-2.167v-1.333h2.872c2.462 0 2.462-2.37 2.462-2.37v-4.593c0-2.37-2.462-2.37-2.462-2.37z"></path>
</symbol>
<symbol id="icon-unchecked" viewBox="0 0 32 32">
<path fill="none" stroke="#6c6ba2" style="stroke: var(--color1, #6c6ba2)" stroke-linejoin="miter" stroke-linecap="butt" stroke-miterlimit="4" stroke-width="1.7778" d="M7.111 0.889h17.778c3.436 0 6.222 2.786 6.222 6.222v17.778c0 3.436-2.786 6.222-6.222 6.222h-17.778c-3.436 0-6.222-2.786-6.222-6.222v-17.778c0-3.436 2.786-6.222 6.222-6.222z"></path>
</symbol>
<symbol id="icon-universe" viewBox="0 0 29 32">
<path d="M-13.625 0h42.625v32h-42.625v-32z"></path>
</symbol>
<symbol id="icon-visible" viewBox="0 0 32 32">
<path fill="#626270" style="fill: var(--color7, #626270)" d="M18.828 18.828c0.75-0.75 1.172-1.767 1.172-2.828s-0.421-2.078-1.172-2.828-1.768-1.172-2.828-1.172c-1.061 0-2.078 0.421-2.828 1.172s-1.172 1.768-1.172 2.828c0 1.061 0.421 2.078 1.172 2.828s1.768 1.172 2.828 1.172c1.061 0 2.078-0.421 2.828-1.172z"></path>
<path fill="#626270" style="fill: var(--color7, #626270)" d="M16 6.667c5.205 0 10.315 2.981 13.192 8.737 0.092 0.185 0.141 0.389 0.141 0.596s-0.048 0.411-0.141 0.596c-2.877 5.756-7.988 8.737-13.192 8.737-5.205 0-10.315-2.981-13.192-8.737-0.092-0.185-0.141-0.389-0.141-0.596s0.048-0.411 0.141-0.596c2.877-5.756 7.988-8.737 13.192-8.737zM5.507 16c2.491 4.507 6.535 6.667 10.493 6.667s8.003-2.16 10.493-6.667c-2.491-4.507-6.535-6.667-10.493-6.667-3.96 0-8.003 2.16-10.493 6.667z"></path>
</symbol>
</defs>
</svg>
